<mxfile host="app.diagrams.net" modified="2024-06-11T02:34:11.235Z" agent="Mozilla/5.0 (Windows NT 10.0; Win64; x64) AppleWebKit/537.36 (KHTML, like Gecko) Chrome/125.0.0.0 Safari/537.36" etag="jrbsg_sX48qYNEdz4qYu" version="24.5.2" type="github">
  <diagram name="第 1 页" id="a3wWLOY99gl7KxZ9aG14">
    <mxGraphModel dx="2035" dy="998" grid="1" gridSize="10" guides="0" tooltips="1" connect="1" arrows="1" fold="1" page="1" pageScale="1" pageWidth="827" pageHeight="1169" math="0" shadow="0">
      <root>
        <mxCell id="0" />
        <mxCell id="1" parent="0" />
        <mxCell id="-UbHEKh8l_d8gub23TeE-1" value="&lt;font style=&quot;font-size: 14px;&quot;&gt;奉玉公&lt;/font&gt;&lt;div&gt;&lt;font size=&quot;3&quot;&gt;（张氏）&lt;/font&gt;&lt;/div&gt;" style="rounded=0;whiteSpace=wrap;html=1;" vertex="1" parent="1">
          <mxGeometry x="30" y="610" width="120" height="60" as="geometry" />
        </mxCell>
        <mxCell id="-UbHEKh8l_d8gub23TeE-2" value="&lt;font style=&quot;font-size: 18px;&quot;&gt;二十世&lt;/font&gt;" style="text;strokeColor=none;align=center;fillColor=none;html=1;verticalAlign=middle;whiteSpace=wrap;rounded=0;" vertex="1" parent="1">
          <mxGeometry x="50" y="420" width="60" height="30" as="geometry" />
        </mxCell>
        <mxCell id="-UbHEKh8l_d8gub23TeE-3" value="" style="strokeWidth=2;html=1;shape=mxgraph.flowchart.annotation_2;align=left;labelPosition=right;pointerEvents=1;" vertex="1" parent="1">
          <mxGeometry x="150" y="550" width="50" height="170" as="geometry" />
        </mxCell>
        <mxCell id="-UbHEKh8l_d8gub23TeE-5" value="" style="verticalLabelPosition=bottom;verticalAlign=top;html=1;shape=mxgraph.basic.rect;fillColor2=none;strokeWidth=1;size=20;indent=95.33;" vertex="1" parent="1">
          <mxGeometry x="200" y="520" width="120" height="60" as="geometry" />
        </mxCell>
        <mxCell id="-UbHEKh8l_d8gub23TeE-6" value="新发公（邓太婆）" style="text;strokeColor=none;align=center;fillColor=none;html=1;verticalAlign=middle;whiteSpace=wrap;rounded=0;fontSize=14;" vertex="1" parent="1">
          <mxGeometry x="210" y="530" width="100" height="40" as="geometry" />
        </mxCell>
        <mxCell id="-UbHEKh8l_d8gub23TeE-7" value="" style="verticalLabelPosition=bottom;verticalAlign=top;html=1;shape=mxgraph.basic.rect;fillColor2=none;strokeWidth=1;size=20;indent=5;" vertex="1" parent="1">
          <mxGeometry x="200" y="690" width="120" height="60" as="geometry" />
        </mxCell>
        <mxCell id="-UbHEKh8l_d8gub23TeE-8" value="&lt;font style=&quot;font-size: 14px;&quot;&gt;？&lt;/font&gt;" style="text;strokeColor=none;align=center;fillColor=none;html=1;verticalAlign=middle;whiteSpace=wrap;rounded=0;" vertex="1" parent="1">
          <mxGeometry x="230" y="710" width="60" height="30" as="geometry" />
        </mxCell>
        <mxCell id="-UbHEKh8l_d8gub23TeE-9" value="" style="strokeWidth=2;html=1;shape=mxgraph.flowchart.annotation_2;align=left;labelPosition=right;pointerEvents=1;" vertex="1" parent="1">
          <mxGeometry x="320" y="510" width="50" height="100" as="geometry" />
        </mxCell>
        <mxCell id="-UbHEKh8l_d8gub23TeE-10" value="" style="verticalLabelPosition=bottom;verticalAlign=top;html=1;shape=mxgraph.basic.rect;fillColor2=none;strokeWidth=1;size=20;indent=5;" vertex="1" parent="1">
          <mxGeometry x="370" y="480" width="120" height="60" as="geometry" />
        </mxCell>
        <mxCell id="-UbHEKh8l_d8gub23TeE-11" value="" style="verticalLabelPosition=bottom;verticalAlign=top;html=1;shape=mxgraph.basic.rect;fillColor2=none;strokeWidth=1;size=20;indent=5;" vertex="1" parent="1">
          <mxGeometry x="370" y="580" width="120" height="60" as="geometry" />
        </mxCell>
        <mxCell id="-UbHEKh8l_d8gub23TeE-12" value="&lt;font style=&quot;font-size: 18px;&quot;&gt;甘一世&lt;/font&gt;" style="text;strokeColor=none;align=center;fillColor=none;html=1;verticalAlign=middle;whiteSpace=wrap;rounded=0;" vertex="1" parent="1">
          <mxGeometry x="220" y="420" width="60" height="30" as="geometry" />
        </mxCell>
        <mxCell id="-UbHEKh8l_d8gub23TeE-15" value="" style="line;strokeWidth=2;direction=south;html=1;" vertex="1" parent="1">
          <mxGeometry x="340" y="610" width="10" height="200" as="geometry" />
        </mxCell>
        <mxCell id="-UbHEKh8l_d8gub23TeE-18" value="" style="line;strokeWidth=2;html=1;" vertex="1" parent="1">
          <mxGeometry x="345" y="710" width="25" height="10" as="geometry" />
        </mxCell>
        <mxCell id="-UbHEKh8l_d8gub23TeE-24" value="" style="line;strokeWidth=2;html=1;" vertex="1" parent="1">
          <mxGeometry x="346" y="804" width="25" height="10" as="geometry" />
        </mxCell>
        <mxCell id="-UbHEKh8l_d8gub23TeE-25" value="Text" style="text;strokeColor=none;align=center;fillColor=none;html=1;verticalAlign=middle;whiteSpace=wrap;rounded=0;" vertex="1" parent="1">
          <mxGeometry x="370" y="680" width="120" height="60" as="geometry" />
        </mxCell>
        <mxCell id="-UbHEKh8l_d8gub23TeE-26" value="长子：开杨（胡氏婆太）" style="text;strokeColor=none;align=center;fillColor=none;html=1;verticalAlign=middle;whiteSpace=wrap;rounded=0;fontSize=14;" vertex="1" parent="1">
          <mxGeometry x="370" y="480" width="120" height="60" as="geometry" />
        </mxCell>
        <mxCell id="-UbHEKh8l_d8gub23TeE-28" value="&lt;font style=&quot;font-size: 14px;&quot;&gt;二子：显杨（侯氏）&lt;/font&gt;" style="text;strokeColor=none;align=center;fillColor=none;html=1;verticalAlign=middle;whiteSpace=wrap;rounded=0;" vertex="1" parent="1">
          <mxGeometry x="380" y="580" width="100" height="60" as="geometry" />
        </mxCell>
        <mxCell id="-UbHEKh8l_d8gub23TeE-31" value="" style="edgeStyle=orthogonalEdgeStyle;rounded=0;orthogonalLoop=1;jettySize=auto;html=1;" edge="1" parent="1" source="-UbHEKh8l_d8gub23TeE-29" target="-UbHEKh8l_d8gub23TeE-30">
          <mxGeometry relative="1" as="geometry" />
        </mxCell>
        <mxCell id="-UbHEKh8l_d8gub23TeE-29" value="&lt;font style=&quot;font-size: 14px;&quot;&gt;三子：闾杨（刘氏）&lt;/font&gt;" style="rounded=0;whiteSpace=wrap;html=1;" vertex="1" parent="1">
          <mxGeometry x="370" y="680" width="120" height="60" as="geometry" />
        </mxCell>
        <mxCell id="-UbHEKh8l_d8gub23TeE-30" value="" style="rounded=0;whiteSpace=wrap;html=1;" vertex="1" parent="1">
          <mxGeometry x="370" y="780" width="120" height="60" as="geometry" />
        </mxCell>
        <mxCell id="-UbHEKh8l_d8gub23TeE-32" value="&lt;span style=&quot;font-size: 14px;&quot;&gt;四子：秦杨（薛氏）&lt;/span&gt;" style="text;strokeColor=none;align=center;fillColor=none;html=1;verticalAlign=middle;whiteSpace=wrap;rounded=0;" vertex="1" parent="1">
          <mxGeometry x="370" y="780" width="120" height="60" as="geometry" />
        </mxCell>
        <mxCell id="-UbHEKh8l_d8gub23TeE-33" value="" style="strokeWidth=2;html=1;shape=mxgraph.flowchart.annotation_2;align=left;labelPosition=right;pointerEvents=1;" vertex="1" parent="1">
          <mxGeometry x="490" y="560" width="50" height="100" as="geometry" />
        </mxCell>
        <mxCell id="-UbHEKh8l_d8gub23TeE-34" value="" style="verticalLabelPosition=bottom;verticalAlign=top;html=1;shape=mxgraph.basic.rect;fillColor2=none;strokeWidth=1;size=20;indent=5;" vertex="1" parent="1">
          <mxGeometry x="540" y="540" width="120" height="60" as="geometry" />
        </mxCell>
        <mxCell id="-UbHEKh8l_d8gub23TeE-35" value="" style="verticalLabelPosition=bottom;verticalAlign=top;html=1;shape=mxgraph.basic.rect;fillColor2=none;strokeWidth=1;size=20;indent=5;" vertex="1" parent="1">
          <mxGeometry x="540" y="640" width="120" height="60" as="geometry" />
        </mxCell>
        <mxCell id="-UbHEKh8l_d8gub23TeE-36" value="&lt;span style=&quot;font-size: 14px;&quot;&gt;长子：锦森(德&lt;/span&gt;&lt;font style=&quot;font-size: 14px;&quot;&gt;兑&lt;/font&gt;&lt;span style=&quot;font-size: 14px;&quot;&gt;)&lt;/span&gt;" style="text;strokeColor=none;align=center;fillColor=none;html=1;verticalAlign=middle;whiteSpace=wrap;rounded=0;" vertex="1" parent="1">
          <mxGeometry x="540" y="540" width="120" height="60" as="geometry" />
        </mxCell>
        <mxCell id="-UbHEKh8l_d8gub23TeE-40" value="&lt;font style=&quot;font-size: 14px;&quot;&gt;次子：德辉（何氏）&lt;/font&gt;" style="text;strokeColor=none;align=center;fillColor=none;html=1;verticalAlign=middle;whiteSpace=wrap;rounded=0;" vertex="1" parent="1">
          <mxGeometry x="550" y="640" width="110" height="60" as="geometry" />
        </mxCell>
        <mxCell id="-UbHEKh8l_d8gub23TeE-42" value="" style="line;strokeWidth=2;html=1;" vertex="1" parent="1">
          <mxGeometry x="660" y="670" width="70" height="10" as="geometry" />
        </mxCell>
        <mxCell id="-UbHEKh8l_d8gub23TeE-43" value="" style="line;strokeWidth=2;direction=south;html=1;" vertex="1" parent="1">
          <mxGeometry x="725" y="603" width="10" height="157" as="geometry" />
        </mxCell>
        <mxCell id="-UbHEKh8l_d8gub23TeE-45" value="" style="line;strokeWidth=2;html=1;" vertex="1" parent="1">
          <mxGeometry x="730" y="599" width="50" height="10" as="geometry" />
        </mxCell>
        <mxCell id="-UbHEKh8l_d8gub23TeE-46" value="" style="line;strokeWidth=2;html=1;" vertex="1" parent="1">
          <mxGeometry x="730" y="670" width="50" height="10" as="geometry" />
        </mxCell>
        <mxCell id="-UbHEKh8l_d8gub23TeE-47" value="" style="line;strokeWidth=2;html=1;" vertex="1" parent="1">
          <mxGeometry x="730" y="756" width="50" height="10" as="geometry" />
        </mxCell>
        <mxCell id="-UbHEKh8l_d8gub23TeE-48" value="" style="rounded=0;whiteSpace=wrap;html=1;" vertex="1" parent="1">
          <mxGeometry x="780" y="580" width="120" height="60" as="geometry" />
        </mxCell>
        <mxCell id="-UbHEKh8l_d8gub23TeE-49" value="" style="rounded=0;whiteSpace=wrap;html=1;" vertex="1" parent="1">
          <mxGeometry x="780" y="650" width="120" height="60" as="geometry" />
        </mxCell>
        <mxCell id="-UbHEKh8l_d8gub23TeE-50" value="" style="rounded=0;whiteSpace=wrap;html=1;" vertex="1" parent="1">
          <mxGeometry x="780" y="730" width="120" height="60" as="geometry" />
        </mxCell>
        <mxCell id="-UbHEKh8l_d8gub23TeE-51" value="&lt;span style=&quot;font-size: 14px;&quot;&gt;学通（邱氏、张氏）&lt;/span&gt;" style="text;strokeColor=none;align=center;fillColor=none;html=1;verticalAlign=middle;whiteSpace=wrap;rounded=0;" vertex="1" parent="1">
          <mxGeometry x="790" y="580" width="100" height="50" as="geometry" />
        </mxCell>
        <mxCell id="-UbHEKh8l_d8gub23TeE-52" value="&lt;span style=&quot;font-size: 14px;&quot;&gt;学轩&lt;/span&gt;" style="text;strokeColor=none;align=center;fillColor=none;html=1;verticalAlign=middle;whiteSpace=wrap;rounded=0;" vertex="1" parent="1">
          <mxGeometry x="790" y="650" width="100" height="60" as="geometry" />
        </mxCell>
        <mxCell id="-UbHEKh8l_d8gub23TeE-53" value="&lt;span style=&quot;font-size: 14px;&quot;&gt;学镜&lt;/span&gt;" style="text;strokeColor=none;align=center;fillColor=none;html=1;verticalAlign=middle;whiteSpace=wrap;rounded=0;" vertex="1" parent="1">
          <mxGeometry x="770" y="742" width="120" height="40" as="geometry" />
        </mxCell>
        <mxCell id="-UbHEKh8l_d8gub23TeE-56" value="" style="strokeWidth=2;html=1;shape=mxgraph.flowchart.annotation_2;align=left;labelPosition=right;pointerEvents=1;" vertex="1" parent="1">
          <mxGeometry x="900" y="560" width="50" height="100" as="geometry" />
        </mxCell>
        <mxCell id="-UbHEKh8l_d8gub23TeE-57" value="" style="rounded=0;whiteSpace=wrap;html=1;" vertex="1" parent="1">
          <mxGeometry x="950" y="530" width="120" height="60" as="geometry" />
        </mxCell>
        <mxCell id="-UbHEKh8l_d8gub23TeE-58" value="" style="rounded=0;whiteSpace=wrap;html=1;" vertex="1" parent="1">
          <mxGeometry x="950" y="630" width="120" height="60" as="geometry" />
        </mxCell>
        <mxCell id="-UbHEKh8l_d8gub23TeE-59" value="&lt;span style=&quot;font-size: 14px;&quot;&gt;时稻(张氏)&lt;/span&gt;" style="text;strokeColor=none;align=center;fillColor=none;html=1;verticalAlign=middle;whiteSpace=wrap;rounded=0;" vertex="1" parent="1">
          <mxGeometry x="960" y="530" width="100" height="60" as="geometry" />
        </mxCell>
        <mxCell id="-UbHEKh8l_d8gub23TeE-60" value="&lt;span style=&quot;font-size: 14px;&quot;&gt;时关&lt;/span&gt;" style="text;strokeColor=none;align=center;fillColor=none;html=1;verticalAlign=middle;whiteSpace=wrap;rounded=0;" vertex="1" parent="1">
          <mxGeometry x="960" y="630" width="100" height="60" as="geometry" />
        </mxCell>
        <mxCell id="-UbHEKh8l_d8gub23TeE-61" value="" style="strokeWidth=2;html=1;shape=mxgraph.flowchart.annotation_2;align=left;labelPosition=right;pointerEvents=1;" vertex="1" parent="1">
          <mxGeometry x="1070" y="510" width="50" height="100" as="geometry" />
        </mxCell>
        <mxCell id="-UbHEKh8l_d8gub23TeE-62" value="" style="rounded=0;whiteSpace=wrap;html=1;" vertex="1" parent="1">
          <mxGeometry x="1120" y="480" width="120" height="60" as="geometry" />
        </mxCell>
        <mxCell id="-UbHEKh8l_d8gub23TeE-63" value="" style="rounded=0;whiteSpace=wrap;html=1;" vertex="1" parent="1">
          <mxGeometry x="1120" y="580" width="120" height="60" as="geometry" />
        </mxCell>
        <mxCell id="-UbHEKh8l_d8gub23TeE-64" value="&lt;span style=&quot;font-size: 14px;&quot;&gt;丙坤&lt;/span&gt;" style="text;strokeColor=none;align=center;fillColor=none;html=1;verticalAlign=middle;whiteSpace=wrap;rounded=0;" vertex="1" parent="1">
          <mxGeometry x="1120" y="580" width="100" height="60" as="geometry" />
        </mxCell>
        <mxCell id="-UbHEKh8l_d8gub23TeE-65" value="&lt;span style=&quot;font-size: 14px;&quot;&gt;长子：丙杨（薛氏）&lt;/span&gt;" style="text;strokeColor=none;align=center;fillColor=none;html=1;verticalAlign=middle;whiteSpace=wrap;rounded=0;" vertex="1" parent="1">
          <mxGeometry x="1130" y="480" width="100" height="60" as="geometry" />
        </mxCell>
        <mxCell id="-UbHEKh8l_d8gub23TeE-66" value="&lt;font style=&quot;font-size: 18px;&quot;&gt;甘二世&lt;/font&gt;" style="text;whiteSpace=wrap;html=1;" vertex="1" parent="1">
          <mxGeometry x="400" y="415" width="70" height="50" as="geometry" />
        </mxCell>
        <mxCell id="-UbHEKh8l_d8gub23TeE-67" value="&lt;font style=&quot;font-size: 18px;&quot;&gt;甘三世&lt;/font&gt;" style="text;whiteSpace=wrap;html=1;" vertex="1" parent="1">
          <mxGeometry x="550" y="415" width="70" height="40" as="geometry" />
        </mxCell>
        <mxCell id="-UbHEKh8l_d8gub23TeE-68" value="&lt;font style=&quot;font-size: 18px;&quot;&gt;甘四世&lt;/font&gt;" style="text;whiteSpace=wrap;html=1;" vertex="1" parent="1">
          <mxGeometry x="800" y="415" width="70" height="40" as="geometry" />
        </mxCell>
        <mxCell id="-UbHEKh8l_d8gub23TeE-69" value="&lt;font style=&quot;font-size: 18px;&quot;&gt;甘五世&lt;/font&gt;" style="text;whiteSpace=wrap;html=1;" vertex="1" parent="1">
          <mxGeometry x="960" y="414" width="70" height="40" as="geometry" />
        </mxCell>
        <mxCell id="-UbHEKh8l_d8gub23TeE-70" value="&lt;font style=&quot;font-size: 18px;&quot;&gt;甘六世&lt;/font&gt;" style="text;whiteSpace=wrap;html=1;" vertex="1" parent="1">
          <mxGeometry x="1140" y="413" width="70" height="30" as="geometry" />
        </mxCell>
      </root>
    </mxGraphModel>
  </diagram>
</mxfile>
